<?xml version="1.0" encoding="utf-8"?>
<svg xmlns="http://www.w3.org/2000/svg" xmlns:xlink="http://www.w3.org/1999/xlink" width="600" height="400" viewBox="0 0 2400 1600">
<defs>
  <clipPath id="clip370">
    <rect x="0" y="0" width="2400" height="1600"/>
  </clipPath>
</defs>
<path clip-path="url(#clip370)" d="M0 1600 L2400 1600 L2400 0 L0 0  Z" fill="#ffffff" fill-rule="evenodd" fill-opacity="1"/>
<defs>
  <clipPath id="clip371">
    <rect x="480" y="0" width="1681" height="1600"/>
  </clipPath>
</defs>
<path clip-path="url(#clip370)" d="M194.098 1486.45 L2352.76 1486.45 L2352.76 47.2441 L194.098 47.2441  Z" fill="#ffffff" fill-rule="evenodd" fill-opacity="1"/>
<defs>
  <clipPath id="clip372">
    <rect x="194" y="47" width="2160" height="1440"/>
  </clipPath>
</defs>
<polyline clip-path="url(#clip372)" style="stroke:#000000; stroke-linecap:round; stroke-linejoin:round; stroke-width:2; stroke-opacity:0.1; fill:none" points="335.135,1486.45 335.135,47.2441 "/>
<polyline clip-path="url(#clip372)" style="stroke:#000000; stroke-linecap:round; stroke-linejoin:round; stroke-width:2; stroke-opacity:0.1; fill:none" points="793.166,1486.45 793.166,47.2441 "/>
<polyline clip-path="url(#clip372)" style="stroke:#000000; stroke-linecap:round; stroke-linejoin:round; stroke-width:2; stroke-opacity:0.1; fill:none" points="1251.2,1486.45 1251.2,47.2441 "/>
<polyline clip-path="url(#clip372)" style="stroke:#000000; stroke-linecap:round; stroke-linejoin:round; stroke-width:2; stroke-opacity:0.1; fill:none" points="1709.23,1486.45 1709.23,47.2441 "/>
<polyline clip-path="url(#clip372)" style="stroke:#000000; stroke-linecap:round; stroke-linejoin:round; stroke-width:2; stroke-opacity:0.1; fill:none" points="2167.26,1486.45 2167.26,47.2441 "/>
<polyline clip-path="url(#clip370)" style="stroke:#000000; stroke-linecap:round; stroke-linejoin:round; stroke-width:4; stroke-opacity:1; fill:none" points="194.098,1486.45 2352.76,1486.45 "/>
<polyline clip-path="url(#clip370)" style="stroke:#000000; stroke-linecap:round; stroke-linejoin:round; stroke-width:4; stroke-opacity:1; fill:none" points="335.135,1486.45 335.135,1467.55 "/>
<polyline clip-path="url(#clip370)" style="stroke:#000000; stroke-linecap:round; stroke-linejoin:round; stroke-width:4; stroke-opacity:1; fill:none" points="793.166,1486.45 793.166,1467.55 "/>
<polyline clip-path="url(#clip370)" style="stroke:#000000; stroke-linecap:round; stroke-linejoin:round; stroke-width:4; stroke-opacity:1; fill:none" points="1251.2,1486.45 1251.2,1467.55 "/>
<polyline clip-path="url(#clip370)" style="stroke:#000000; stroke-linecap:round; stroke-linejoin:round; stroke-width:4; stroke-opacity:1; fill:none" points="1709.23,1486.45 1709.23,1467.55 "/>
<polyline clip-path="url(#clip370)" style="stroke:#000000; stroke-linecap:round; stroke-linejoin:round; stroke-width:4; stroke-opacity:1; fill:none" points="2167.26,1486.45 2167.26,1467.55 "/>
<path clip-path="url(#clip370)" d="M305.078 1532.02 L334.753 1532.02 L334.753 1535.95 L305.078 1535.95 L305.078 1532.02 Z" fill="#000000" fill-rule="nonzero" fill-opacity="1" /><path clip-path="url(#clip370)" d="M348.874 1544.91 L365.193 1544.91 L365.193 1548.85 L343.249 1548.85 L343.249 1544.91 Q345.911 1542.16 350.494 1537.53 Q355.1 1532.88 356.281 1531.53 Q358.526 1529.01 359.406 1527.27 Q360.309 1525.51 360.309 1523.82 Q360.309 1521.07 358.364 1519.33 Q356.443 1517.6 353.341 1517.6 Q351.142 1517.6 348.688 1518.36 Q346.258 1519.13 343.48 1520.68 L343.48 1515.95 Q346.304 1514.82 348.758 1514.24 Q351.212 1513.66 353.249 1513.66 Q358.619 1513.66 361.813 1516.35 Q365.008 1519.03 365.008 1523.52 Q365.008 1525.65 364.198 1527.57 Q363.411 1529.47 361.304 1532.07 Q360.725 1532.74 357.624 1535.95 Q354.522 1539.15 348.874 1544.91 Z" fill="#000000" fill-rule="nonzero" fill-opacity="1" /><path clip-path="url(#clip370)" d="M762.923 1532.02 L792.599 1532.02 L792.599 1535.95 L762.923 1535.95 L762.923 1532.02 Z" fill="#000000" fill-rule="nonzero" fill-opacity="1" /><path clip-path="url(#clip370)" d="M803.502 1544.91 L811.14 1544.91 L811.14 1518.55 L802.83 1520.21 L802.83 1515.95 L811.094 1514.29 L815.77 1514.29 L815.77 1544.91 L823.409 1544.91 L823.409 1548.85 L803.502 1548.85 L803.502 1544.91 Z" fill="#000000" fill-rule="nonzero" fill-opacity="1" /><path clip-path="url(#clip370)" d="M1251.2 1517.37 Q1247.59 1517.37 1245.76 1520.93 Q1243.95 1524.47 1243.95 1531.6 Q1243.95 1538.71 1245.76 1542.27 Q1247.59 1545.82 1251.2 1545.82 Q1254.83 1545.82 1256.64 1542.27 Q1258.47 1538.71 1258.47 1531.6 Q1258.47 1524.47 1256.64 1520.93 Q1254.83 1517.37 1251.2 1517.37 M1251.2 1513.66 Q1257.01 1513.66 1260.06 1518.27 Q1263.14 1522.85 1263.14 1531.6 Q1263.14 1540.33 1260.06 1544.94 Q1257.01 1549.52 1251.2 1549.52 Q1245.39 1549.52 1242.31 1544.94 Q1239.25 1540.33 1239.25 1531.6 Q1239.25 1522.85 1242.31 1518.27 Q1245.39 1513.66 1251.2 1513.66 Z" fill="#000000" fill-rule="nonzero" fill-opacity="1" /><path clip-path="url(#clip370)" d="M1699.61 1544.91 L1707.25 1544.91 L1707.25 1518.55 L1698.94 1520.21 L1698.94 1515.95 L1707.2 1514.29 L1711.88 1514.29 L1711.88 1544.91 L1719.52 1544.91 L1719.52 1548.85 L1699.61 1548.85 L1699.61 1544.91 Z" fill="#000000" fill-rule="nonzero" fill-opacity="1" /><path clip-path="url(#clip370)" d="M2161.91 1544.91 L2178.23 1544.91 L2178.23 1548.85 L2156.29 1548.85 L2156.29 1544.91 Q2158.95 1542.16 2163.53 1537.53 Q2168.14 1532.88 2169.32 1531.53 Q2171.56 1529.01 2172.44 1527.27 Q2173.35 1525.51 2173.35 1523.82 Q2173.35 1521.07 2171.4 1519.33 Q2169.48 1517.6 2166.38 1517.6 Q2164.18 1517.6 2161.73 1518.36 Q2159.29 1519.13 2156.52 1520.68 L2156.52 1515.95 Q2159.34 1514.82 2161.79 1514.24 Q2164.25 1513.66 2166.29 1513.66 Q2171.66 1513.66 2174.85 1516.35 Q2178.04 1519.03 2178.04 1523.52 Q2178.04 1525.65 2177.23 1527.57 Q2176.45 1529.47 2174.34 1532.07 Q2173.76 1532.74 2170.66 1535.95 Q2167.56 1539.15 2161.91 1544.91 Z" fill="#000000" fill-rule="nonzero" fill-opacity="1" /><polyline clip-path="url(#clip372)" style="stroke:#000000; stroke-linecap:round; stroke-linejoin:round; stroke-width:2; stroke-opacity:0.1; fill:none" points="194.098,1280.79 2352.76,1280.79 "/>
<polyline clip-path="url(#clip372)" style="stroke:#000000; stroke-linecap:round; stroke-linejoin:round; stroke-width:2; stroke-opacity:0.1; fill:none" points="194.098,1031.23 2352.76,1031.23 "/>
<polyline clip-path="url(#clip372)" style="stroke:#000000; stroke-linecap:round; stroke-linejoin:round; stroke-width:2; stroke-opacity:0.1; fill:none" points="194.098,781.667 2352.76,781.667 "/>
<polyline clip-path="url(#clip372)" style="stroke:#000000; stroke-linecap:round; stroke-linejoin:round; stroke-width:2; stroke-opacity:0.1; fill:none" points="194.098,532.105 2352.76,532.105 "/>
<polyline clip-path="url(#clip372)" style="stroke:#000000; stroke-linecap:round; stroke-linejoin:round; stroke-width:2; stroke-opacity:0.1; fill:none" points="194.098,282.542 2352.76,282.542 "/>
<polyline clip-path="url(#clip370)" style="stroke:#000000; stroke-linecap:round; stroke-linejoin:round; stroke-width:4; stroke-opacity:1; fill:none" points="194.098,1486.45 194.098,47.2441 "/>
<polyline clip-path="url(#clip370)" style="stroke:#000000; stroke-linecap:round; stroke-linejoin:round; stroke-width:4; stroke-opacity:1; fill:none" points="194.098,1280.79 212.996,1280.79 "/>
<polyline clip-path="url(#clip370)" style="stroke:#000000; stroke-linecap:round; stroke-linejoin:round; stroke-width:4; stroke-opacity:1; fill:none" points="194.098,1031.23 212.996,1031.23 "/>
<polyline clip-path="url(#clip370)" style="stroke:#000000; stroke-linecap:round; stroke-linejoin:round; stroke-width:4; stroke-opacity:1; fill:none" points="194.098,781.667 212.996,781.667 "/>
<polyline clip-path="url(#clip370)" style="stroke:#000000; stroke-linecap:round; stroke-linejoin:round; stroke-width:4; stroke-opacity:1; fill:none" points="194.098,532.105 212.996,532.105 "/>
<polyline clip-path="url(#clip370)" style="stroke:#000000; stroke-linecap:round; stroke-linejoin:round; stroke-width:4; stroke-opacity:1; fill:none" points="194.098,282.542 212.996,282.542 "/>
<path clip-path="url(#clip370)" d="M50.9921 1281.24 L80.6679 1281.24 L80.6679 1285.18 L50.9921 1285.18 L50.9921 1281.24 Z" fill="#000000" fill-rule="nonzero" fill-opacity="1" /><path clip-path="url(#clip370)" d="M100.76 1266.59 Q97.1493 1266.59 95.3206 1270.16 Q93.515 1273.7 93.515 1280.83 Q93.515 1287.93 95.3206 1291.5 Q97.1493 1295.04 100.76 1295.04 Q104.395 1295.04 106.2 1291.5 Q108.029 1287.93 108.029 1280.83 Q108.029 1273.7 106.2 1270.16 Q104.395 1266.59 100.76 1266.59 M100.76 1262.89 Q106.571 1262.89 109.626 1267.49 Q112.705 1272.08 112.705 1280.83 Q112.705 1289.55 109.626 1294.16 Q106.571 1298.74 100.76 1298.74 Q94.9502 1298.74 91.8715 1294.16 Q88.816 1289.55 88.816 1280.83 Q88.816 1272.08 91.8715 1267.49 Q94.9502 1262.89 100.76 1262.89 Z" fill="#000000" fill-rule="nonzero" fill-opacity="1" /><path clip-path="url(#clip370)" d="M120.922 1292.19 L125.807 1292.19 L125.807 1298.07 L120.922 1298.07 L120.922 1292.19 Z" fill="#000000" fill-rule="nonzero" fill-opacity="1" /><path clip-path="url(#clip370)" d="M146.57 1278.93 Q143.422 1278.93 141.57 1281.08 Q139.742 1283.23 139.742 1286.98 Q139.742 1290.71 141.57 1292.89 Q143.422 1295.04 146.57 1295.04 Q149.718 1295.04 151.547 1292.89 Q153.399 1290.71 153.399 1286.98 Q153.399 1283.23 151.547 1281.08 Q149.718 1278.93 146.57 1278.93 M155.853 1264.28 L155.853 1268.54 Q154.093 1267.7 152.288 1267.26 Q150.505 1266.82 148.746 1266.82 Q144.117 1266.82 141.663 1269.95 Q139.232 1273.07 138.885 1279.39 Q140.251 1277.38 142.311 1276.31 Q144.371 1275.23 146.848 1275.23 Q152.056 1275.23 155.066 1278.4 Q158.098 1281.54 158.098 1286.98 Q158.098 1292.31 154.95 1295.53 Q151.802 1298.74 146.57 1298.74 Q140.575 1298.74 137.404 1294.16 Q134.232 1289.55 134.232 1280.83 Q134.232 1272.63 138.121 1267.77 Q142.01 1262.89 148.561 1262.89 Q150.32 1262.89 152.103 1263.23 Q153.908 1263.58 155.853 1264.28 Z" fill="#000000" fill-rule="nonzero" fill-opacity="1" /><path clip-path="url(#clip370)" d="M51.8023 1031.68 L81.4781 1031.68 L81.4781 1035.62 L51.8023 1035.62 L51.8023 1031.68 Z" fill="#000000" fill-rule="nonzero" fill-opacity="1" /><path clip-path="url(#clip370)" d="M101.571 1017.03 Q97.9595 1017.03 96.1308 1020.59 Q94.3252 1024.13 94.3252 1031.26 Q94.3252 1038.37 96.1308 1041.94 Q97.9595 1045.48 101.571 1045.48 Q105.205 1045.48 107.01 1041.94 Q108.839 1038.37 108.839 1031.26 Q108.839 1024.13 107.01 1020.59 Q105.205 1017.03 101.571 1017.03 M101.571 1013.32 Q107.381 1013.32 110.436 1017.93 Q113.515 1022.51 113.515 1031.26 Q113.515 1039.99 110.436 1044.6 Q107.381 1049.18 101.571 1049.18 Q95.7604 1049.18 92.6817 1044.6 Q89.6262 1039.99 89.6262 1031.26 Q89.6262 1022.51 92.6817 1017.93 Q95.7604 1013.32 101.571 1013.32 Z" fill="#000000" fill-rule="nonzero" fill-opacity="1" /><path clip-path="url(#clip370)" d="M121.732 1042.63 L126.617 1042.63 L126.617 1048.51 L121.732 1048.51 L121.732 1042.63 Z" fill="#000000" fill-rule="nonzero" fill-opacity="1" /><path clip-path="url(#clip370)" d="M150.968 1029.88 Q154.325 1030.59 156.2 1032.86 Q158.098 1035.13 158.098 1038.46 Q158.098 1043.58 154.58 1046.38 Q151.061 1049.18 144.58 1049.18 Q142.404 1049.18 140.089 1048.74 Q137.797 1048.32 135.344 1047.47 L135.344 1042.95 Q137.288 1044.09 139.603 1044.67 Q141.918 1045.25 144.441 1045.25 Q148.839 1045.25 151.13 1043.51 Q153.445 1041.77 153.445 1038.46 Q153.445 1035.41 151.293 1033.69 Q149.163 1031.96 145.343 1031.96 L141.316 1031.96 L141.316 1028.12 L145.529 1028.12 Q148.978 1028.12 150.806 1026.75 Q152.635 1025.36 152.635 1022.77 Q152.635 1020.11 150.737 1018.7 Q148.862 1017.26 145.343 1017.26 Q143.422 1017.26 141.223 1017.68 Q139.024 1018.09 136.385 1018.97 L136.385 1014.81 Q139.047 1014.07 141.362 1013.7 Q143.7 1013.32 145.76 1013.32 Q151.084 1013.32 154.186 1015.76 Q157.288 1018.16 157.288 1022.28 Q157.288 1025.15 155.644 1027.14 Q154.001 1029.11 150.968 1029.88 Z" fill="#000000" fill-rule="nonzero" fill-opacity="1" /><path clip-path="url(#clip370)" d="M100.922 767.466 Q97.3113 767.466 95.4826 771.031 Q93.6771 774.572 93.6771 781.702 Q93.6771 788.808 95.4826 792.373 Q97.3113 795.915 100.922 795.915 Q104.557 795.915 106.362 792.373 Q108.191 788.808 108.191 781.702 Q108.191 774.572 106.362 771.031 Q104.557 767.466 100.922 767.466 M100.922 763.762 Q106.733 763.762 109.788 768.369 Q112.867 772.952 112.867 781.702 Q112.867 790.429 109.788 795.035 Q106.733 799.619 100.922 799.619 Q95.1123 799.619 92.0336 795.035 Q88.978 790.429 88.978 781.702 Q88.978 772.952 92.0336 768.369 Q95.1123 763.762 100.922 763.762 Z" fill="#000000" fill-rule="nonzero" fill-opacity="1" /><path clip-path="url(#clip370)" d="M121.084 793.068 L125.969 793.068 L125.969 798.947 L121.084 798.947 L121.084 793.068 Z" fill="#000000" fill-rule="nonzero" fill-opacity="1" /><path clip-path="url(#clip370)" d="M146.154 767.466 Q142.543 767.466 140.714 771.031 Q138.908 774.572 138.908 781.702 Q138.908 788.808 140.714 792.373 Q142.543 795.915 146.154 795.915 Q149.788 795.915 151.593 792.373 Q153.422 788.808 153.422 781.702 Q153.422 774.572 151.593 771.031 Q149.788 767.466 146.154 767.466 M146.154 763.762 Q151.964 763.762 155.019 768.369 Q158.098 772.952 158.098 781.702 Q158.098 790.429 155.019 795.035 Q151.964 799.619 146.154 799.619 Q140.343 799.619 137.265 795.035 Q134.209 790.429 134.209 781.702 Q134.209 772.952 137.265 768.369 Q140.343 763.762 146.154 763.762 Z" fill="#000000" fill-rule="nonzero" fill-opacity="1" /><path clip-path="url(#clip370)" d="M101.571 517.903 Q97.9595 517.903 96.1308 521.468 Q94.3252 525.01 94.3252 532.14 Q94.3252 539.246 96.1308 542.811 Q97.9595 546.352 101.571 546.352 Q105.205 546.352 107.01 542.811 Q108.839 539.246 108.839 532.14 Q108.839 525.01 107.01 521.468 Q105.205 517.903 101.571 517.903 M101.571 514.2 Q107.381 514.2 110.436 518.806 Q113.515 523.39 113.515 532.14 Q113.515 540.866 110.436 545.473 Q107.381 550.056 101.571 550.056 Q95.7604 550.056 92.6817 545.473 Q89.6262 540.866 89.6262 532.14 Q89.6262 523.39 92.6817 518.806 Q95.7604 514.2 101.571 514.2 Z" fill="#000000" fill-rule="nonzero" fill-opacity="1" /><path clip-path="url(#clip370)" d="M121.732 543.505 L126.617 543.505 L126.617 549.385 L121.732 549.385 L121.732 543.505 Z" fill="#000000" fill-rule="nonzero" fill-opacity="1" /><path clip-path="url(#clip370)" d="M150.968 530.751 Q154.325 531.468 156.2 533.737 Q158.098 536.005 158.098 539.339 Q158.098 544.454 154.58 547.255 Q151.061 550.056 144.58 550.056 Q142.404 550.056 140.089 549.616 Q137.797 549.2 135.344 548.343 L135.344 543.829 Q137.288 544.964 139.603 545.542 Q141.918 546.121 144.441 546.121 Q148.839 546.121 151.13 544.385 Q153.445 542.649 153.445 539.339 Q153.445 536.283 151.293 534.57 Q149.163 532.834 145.343 532.834 L141.316 532.834 L141.316 528.991 L145.529 528.991 Q148.978 528.991 150.806 527.626 Q152.635 526.237 152.635 523.644 Q152.635 520.982 150.737 519.57 Q148.862 518.135 145.343 518.135 Q143.422 518.135 141.223 518.552 Q139.024 518.968 136.385 519.848 L136.385 515.681 Q139.047 514.941 141.362 514.57 Q143.7 514.2 145.76 514.2 Q151.084 514.2 154.186 516.63 Q157.288 519.038 157.288 523.158 Q157.288 526.028 155.644 528.019 Q154.001 529.987 150.968 530.751 Z" fill="#000000" fill-rule="nonzero" fill-opacity="1" /><path clip-path="url(#clip370)" d="M100.76 268.341 Q97.1493 268.341 95.3206 271.906 Q93.515 275.448 93.515 282.577 Q93.515 289.684 95.3206 293.248 Q97.1493 296.79 100.76 296.79 Q104.395 296.79 106.2 293.248 Q108.029 289.684 108.029 282.577 Q108.029 275.448 106.2 271.906 Q104.395 268.341 100.76 268.341 M100.76 264.637 Q106.571 264.637 109.626 269.244 Q112.705 273.827 112.705 282.577 Q112.705 291.304 109.626 295.91 Q106.571 300.494 100.76 300.494 Q94.9502 300.494 91.8715 295.91 Q88.816 291.304 88.816 282.577 Q88.816 273.827 91.8715 269.244 Q94.9502 264.637 100.76 264.637 Z" fill="#000000" fill-rule="nonzero" fill-opacity="1" /><path clip-path="url(#clip370)" d="M120.922 293.943 L125.807 293.943 L125.807 299.822 L120.922 299.822 L120.922 293.943 Z" fill="#000000" fill-rule="nonzero" fill-opacity="1" /><path clip-path="url(#clip370)" d="M146.57 280.679 Q143.422 280.679 141.57 282.832 Q139.742 284.984 139.742 288.734 Q139.742 292.461 141.57 294.637 Q143.422 296.79 146.57 296.79 Q149.718 296.79 151.547 294.637 Q153.399 292.461 153.399 288.734 Q153.399 284.984 151.547 282.832 Q149.718 280.679 146.57 280.679 M155.853 266.026 L155.853 270.285 Q154.093 269.452 152.288 269.012 Q150.505 268.573 148.746 268.573 Q144.117 268.573 141.663 271.698 Q139.232 274.823 138.885 281.142 Q140.251 279.128 142.311 278.063 Q144.371 276.975 146.848 276.975 Q152.056 276.975 155.066 280.147 Q158.098 283.295 158.098 288.734 Q158.098 294.059 154.95 297.276 Q151.802 300.494 146.57 300.494 Q140.575 300.494 137.404 295.91 Q134.232 291.304 134.232 282.577 Q134.232 274.383 138.121 269.522 Q142.01 264.637 148.561 264.637 Q150.32 264.637 152.103 264.985 Q153.908 265.332 155.853 266.026 Z" fill="#000000" fill-rule="nonzero" fill-opacity="1" /><circle clip-path="url(#clip372)" cx="1266.13" cy="701.411" r="14.4" fill="#009af9" fill-rule="evenodd" fill-opacity="1" stroke="#000000" stroke-opacity="1" stroke-width="3.2"/>
<circle clip-path="url(#clip372)" cx="1416.76" cy="614.278" r="14.4" fill="#009af9" fill-rule="evenodd" fill-opacity="1" stroke="#000000" stroke-opacity="1" stroke-width="3.2"/>
<circle clip-path="url(#clip372)" cx="952.095" cy="1147.11" r="14.4" fill="#009af9" fill-rule="evenodd" fill-opacity="1" stroke="#000000" stroke-opacity="1" stroke-width="3.2"/>
<circle clip-path="url(#clip372)" cx="358.072" cy="1197.6" r="14.4" fill="#009af9" fill-rule="evenodd" fill-opacity="1" stroke="#000000" stroke-opacity="1" stroke-width="3.2"/>
<circle clip-path="url(#clip372)" cx="1063.84" cy="897.562" r="14.4" fill="#009af9" fill-rule="evenodd" fill-opacity="1" stroke="#000000" stroke-opacity="1" stroke-width="3.2"/>
<circle clip-path="url(#clip372)" cx="2066.72" cy="365.73" r="14.4" fill="#009af9" fill-rule="evenodd" fill-opacity="1" stroke="#000000" stroke-opacity="1" stroke-width="3.2"/>
<circle clip-path="url(#clip372)" cx="1149.36" cy="1053.24" r="14.4" fill="#009af9" fill-rule="evenodd" fill-opacity="1" stroke="#000000" stroke-opacity="1" stroke-width="3.2"/>
<circle clip-path="url(#clip372)" cx="1151.49" cy="1056.3" r="14.4" fill="#009af9" fill-rule="evenodd" fill-opacity="1" stroke="#000000" stroke-opacity="1" stroke-width="3.2"/>
<circle clip-path="url(#clip372)" cx="324.526" cy="1197.6" r="14.4" fill="#009af9" fill-rule="evenodd" fill-opacity="1" stroke="#000000" stroke-opacity="1" stroke-width="3.2"/>
<circle clip-path="url(#clip372)" cx="1901.68" cy="365.73" r="14.4" fill="#009af9" fill-rule="evenodd" fill-opacity="1" stroke="#000000" stroke-opacity="1" stroke-width="3.2"/>
<circle clip-path="url(#clip372)" cx="1212.34" cy="818.798" r="14.4" fill="#009af9" fill-rule="evenodd" fill-opacity="1" stroke="#000000" stroke-opacity="1" stroke-width="3.2"/>
<circle clip-path="url(#clip372)" cx="1755.62" cy="365.73" r="14.4" fill="#009af9" fill-rule="evenodd" fill-opacity="1" stroke="#000000" stroke-opacity="1" stroke-width="3.2"/>
<circle clip-path="url(#clip372)" cx="1066.88" cy="1057.19" r="14.4" fill="#009af9" fill-rule="evenodd" fill-opacity="1" stroke="#000000" stroke-opacity="1" stroke-width="3.2"/>
<circle clip-path="url(#clip372)" cx="1085.61" cy="998.469" r="14.4" fill="#009af9" fill-rule="evenodd" fill-opacity="1" stroke="#000000" stroke-opacity="1" stroke-width="3.2"/>
<circle clip-path="url(#clip372)" cx="1570.75" cy="368.415" r="14.4" fill="#009af9" fill-rule="evenodd" fill-opacity="1" stroke="#000000" stroke-opacity="1" stroke-width="3.2"/>
<circle clip-path="url(#clip372)" cx="828.489" cy="1197.6" r="14.4" fill="#009af9" fill-rule="evenodd" fill-opacity="1" stroke="#000000" stroke-opacity="1" stroke-width="3.2"/>
<circle clip-path="url(#clip372)" cx="293.449" cy="1197.6" r="14.4" fill="#009af9" fill-rule="evenodd" fill-opacity="1" stroke="#000000" stroke-opacity="1" stroke-width="3.2"/>
<circle clip-path="url(#clip372)" cx="1055.38" cy="1124.98" r="14.4" fill="#009af9" fill-rule="evenodd" fill-opacity="1" stroke="#000000" stroke-opacity="1" stroke-width="3.2"/>
<circle clip-path="url(#clip372)" cx="1077.99" cy="1007.76" r="14.4" fill="#009af9" fill-rule="evenodd" fill-opacity="1" stroke="#000000" stroke-opacity="1" stroke-width="3.2"/>
<circle clip-path="url(#clip372)" cx="1788.57" cy="365.73" r="14.4" fill="#009af9" fill-rule="evenodd" fill-opacity="1" stroke="#000000" stroke-opacity="1" stroke-width="3.2"/>
<circle clip-path="url(#clip372)" cx="1055.24" cy="1037.04" r="14.4" fill="#009af9" fill-rule="evenodd" fill-opacity="1" stroke="#000000" stroke-opacity="1" stroke-width="3.2"/>
<circle clip-path="url(#clip372)" cx="880.299" cy="1197.6" r="14.4" fill="#009af9" fill-rule="evenodd" fill-opacity="1" stroke="#000000" stroke-opacity="1" stroke-width="3.2"/>
<circle clip-path="url(#clip372)" cx="1249.34" cy="780.488" r="14.4" fill="#009af9" fill-rule="evenodd" fill-opacity="1" stroke="#000000" stroke-opacity="1" stroke-width="3.2"/>
<circle clip-path="url(#clip372)" cx="1023.04" cy="1042.24" r="14.4" fill="#009af9" fill-rule="evenodd" fill-opacity="1" stroke="#000000" stroke-opacity="1" stroke-width="3.2"/>
<circle clip-path="url(#clip372)" cx="1318.73" cy="751.779" r="14.4" fill="#009af9" fill-rule="evenodd" fill-opacity="1" stroke="#000000" stroke-opacity="1" stroke-width="3.2"/>
<circle clip-path="url(#clip372)" cx="1916.88" cy="365.73" r="14.4" fill="#009af9" fill-rule="evenodd" fill-opacity="1" stroke="#000000" stroke-opacity="1" stroke-width="3.2"/>
<circle clip-path="url(#clip372)" cx="498.894" cy="1197.6" r="14.4" fill="#009af9" fill-rule="evenodd" fill-opacity="1" stroke="#000000" stroke-opacity="1" stroke-width="3.2"/>
<circle clip-path="url(#clip372)" cx="1135.85" cy="1137.8" r="14.4" fill="#009af9" fill-rule="evenodd" fill-opacity="1" stroke="#000000" stroke-opacity="1" stroke-width="3.2"/>
<circle clip-path="url(#clip372)" cx="1775.5" cy="365.73" r="14.4" fill="#009af9" fill-rule="evenodd" fill-opacity="1" stroke="#000000" stroke-opacity="1" stroke-width="3.2"/>
<circle clip-path="url(#clip372)" cx="921.992" cy="1125.48" r="14.4" fill="#009af9" fill-rule="evenodd" fill-opacity="1" stroke="#000000" stroke-opacity="1" stroke-width="3.2"/>
<circle clip-path="url(#clip372)" cx="917.477" cy="1197.6" r="14.4" fill="#009af9" fill-rule="evenodd" fill-opacity="1" stroke="#000000" stroke-opacity="1" stroke-width="3.2"/>
<circle clip-path="url(#clip372)" cx="1451.52" cy="434.822" r="14.4" fill="#009af9" fill-rule="evenodd" fill-opacity="1" stroke="#000000" stroke-opacity="1" stroke-width="3.2"/>
<circle clip-path="url(#clip372)" cx="1194.49" cy="983.315" r="14.4" fill="#009af9" fill-rule="evenodd" fill-opacity="1" stroke="#000000" stroke-opacity="1" stroke-width="3.2"/>
<circle clip-path="url(#clip372)" cx="1207.7" cy="1019.16" r="14.4" fill="#009af9" fill-rule="evenodd" fill-opacity="1" stroke="#000000" stroke-opacity="1" stroke-width="3.2"/>
<circle clip-path="url(#clip372)" cx="903.661" cy="1197.6" r="14.4" fill="#009af9" fill-rule="evenodd" fill-opacity="1" stroke="#000000" stroke-opacity="1" stroke-width="3.2"/>
<circle clip-path="url(#clip372)" cx="1337.23" cy="694.615" r="14.4" fill="#009af9" fill-rule="evenodd" fill-opacity="1" stroke="#000000" stroke-opacity="1" stroke-width="3.2"/>
<circle clip-path="url(#clip372)" cx="902.618" cy="1197.6" r="14.4" fill="#009af9" fill-rule="evenodd" fill-opacity="1" stroke="#000000" stroke-opacity="1" stroke-width="3.2"/>
<circle clip-path="url(#clip372)" cx="1056.58" cy="935.814" r="14.4" fill="#009af9" fill-rule="evenodd" fill-opacity="1" stroke="#000000" stroke-opacity="1" stroke-width="3.2"/>
<circle clip-path="url(#clip372)" cx="1974.43" cy="365.73" r="14.4" fill="#009af9" fill-rule="evenodd" fill-opacity="1" stroke="#000000" stroke-opacity="1" stroke-width="3.2"/>
<circle clip-path="url(#clip372)" cx="803.033" cy="1197.6" r="14.4" fill="#009af9" fill-rule="evenodd" fill-opacity="1" stroke="#000000" stroke-opacity="1" stroke-width="3.2"/>
<circle clip-path="url(#clip372)" cx="1371.59" cy="589.984" r="14.4" fill="#009af9" fill-rule="evenodd" fill-opacity="1" stroke="#000000" stroke-opacity="1" stroke-width="3.2"/>
<circle clip-path="url(#clip372)" cx="1174.67" cy="864.637" r="14.4" fill="#009af9" fill-rule="evenodd" fill-opacity="1" stroke="#000000" stroke-opacity="1" stroke-width="3.2"/>
<circle clip-path="url(#clip372)" cx="255.192" cy="1197.6" r="14.4" fill="#009af9" fill-rule="evenodd" fill-opacity="1" stroke="#000000" stroke-opacity="1" stroke-width="3.2"/>
<circle clip-path="url(#clip372)" cx="492.533" cy="1197.6" r="14.4" fill="#009af9" fill-rule="evenodd" fill-opacity="1" stroke="#000000" stroke-opacity="1" stroke-width="3.2"/>
<circle clip-path="url(#clip372)" cx="813.128" cy="1197.6" r="14.4" fill="#009af9" fill-rule="evenodd" fill-opacity="1" stroke="#000000" stroke-opacity="1" stroke-width="3.2"/>
<circle clip-path="url(#clip372)" cx="1174.46" cy="851.867" r="14.4" fill="#009af9" fill-rule="evenodd" fill-opacity="1" stroke="#000000" stroke-opacity="1" stroke-width="3.2"/>
<circle clip-path="url(#clip372)" cx="1325.97" cy="776.169" r="14.4" fill="#009af9" fill-rule="evenodd" fill-opacity="1" stroke="#000000" stroke-opacity="1" stroke-width="3.2"/>
<circle clip-path="url(#clip372)" cx="1529.77" cy="365.73" r="14.4" fill="#009af9" fill-rule="evenodd" fill-opacity="1" stroke="#000000" stroke-opacity="1" stroke-width="3.2"/>
<circle clip-path="url(#clip372)" cx="951.487" cy="1197.6" r="14.4" fill="#009af9" fill-rule="evenodd" fill-opacity="1" stroke="#000000" stroke-opacity="1" stroke-width="3.2"/>
<circle clip-path="url(#clip372)" cx="627.333" cy="1197.6" r="14.4" fill="#009af9" fill-rule="evenodd" fill-opacity="1" stroke="#000000" stroke-opacity="1" stroke-width="3.2"/>
<circle clip-path="url(#clip372)" cx="2291.66" cy="365.73" r="14.4" fill="#009af9" fill-rule="evenodd" fill-opacity="1" stroke="#000000" stroke-opacity="1" stroke-width="3.2"/>
<circle clip-path="url(#clip372)" cx="328.036" cy="1197.6" r="14.4" fill="#009af9" fill-rule="evenodd" fill-opacity="1" stroke="#000000" stroke-opacity="1" stroke-width="3.2"/>
<circle clip-path="url(#clip372)" cx="1057.33" cy="1018.34" r="14.4" fill="#009af9" fill-rule="evenodd" fill-opacity="1" stroke="#000000" stroke-opacity="1" stroke-width="3.2"/>
<circle clip-path="url(#clip372)" cx="1070.32" cy="960.718" r="14.4" fill="#009af9" fill-rule="evenodd" fill-opacity="1" stroke="#000000" stroke-opacity="1" stroke-width="3.2"/>
<circle clip-path="url(#clip372)" cx="1317.91" cy="618.536" r="14.4" fill="#009af9" fill-rule="evenodd" fill-opacity="1" stroke="#000000" stroke-opacity="1" stroke-width="3.2"/>
<circle clip-path="url(#clip372)" cx="799.413" cy="1197.6" r="14.4" fill="#009af9" fill-rule="evenodd" fill-opacity="1" stroke="#000000" stroke-opacity="1" stroke-width="3.2"/>
<circle clip-path="url(#clip372)" cx="811.987" cy="1197.6" r="14.4" fill="#009af9" fill-rule="evenodd" fill-opacity="1" stroke="#000000" stroke-opacity="1" stroke-width="3.2"/>
<circle clip-path="url(#clip372)" cx="989.19" cy="1149.17" r="14.4" fill="#009af9" fill-rule="evenodd" fill-opacity="1" stroke="#000000" stroke-opacity="1" stroke-width="3.2"/>
<circle clip-path="url(#clip372)" cx="2191.76" cy="365.73" r="14.4" fill="#009af9" fill-rule="evenodd" fill-opacity="1" stroke="#000000" stroke-opacity="1" stroke-width="3.2"/>
<circle clip-path="url(#clip372)" cx="1294.73" cy="612.378" r="14.4" fill="#009af9" fill-rule="evenodd" fill-opacity="1" stroke="#000000" stroke-opacity="1" stroke-width="3.2"/>
<circle clip-path="url(#clip372)" cx="1612.41" cy="365.73" r="14.4" fill="#009af9" fill-rule="evenodd" fill-opacity="1" stroke="#000000" stroke-opacity="1" stroke-width="3.2"/>
<circle clip-path="url(#clip372)" cx="952.389" cy="1197.6" r="14.4" fill="#009af9" fill-rule="evenodd" fill-opacity="1" stroke="#000000" stroke-opacity="1" stroke-width="3.2"/>
<circle clip-path="url(#clip372)" cx="1428.57" cy="539.312" r="14.4" fill="#009af9" fill-rule="evenodd" fill-opacity="1" stroke="#000000" stroke-opacity="1" stroke-width="3.2"/>
<circle clip-path="url(#clip372)" cx="1289.3" cy="666.491" r="14.4" fill="#009af9" fill-rule="evenodd" fill-opacity="1" stroke="#000000" stroke-opacity="1" stroke-width="3.2"/>
<circle clip-path="url(#clip372)" cx="1048.41" cy="1033.04" r="14.4" fill="#009af9" fill-rule="evenodd" fill-opacity="1" stroke="#000000" stroke-opacity="1" stroke-width="3.2"/>
<circle clip-path="url(#clip372)" cx="545.668" cy="1197.6" r="14.4" fill="#009af9" fill-rule="evenodd" fill-opacity="1" stroke="#000000" stroke-opacity="1" stroke-width="3.2"/>
<circle clip-path="url(#clip372)" cx="570.111" cy="1197.6" r="14.4" fill="#009af9" fill-rule="evenodd" fill-opacity="1" stroke="#000000" stroke-opacity="1" stroke-width="3.2"/>
<circle clip-path="url(#clip372)" cx="1155.07" cy="736.456" r="14.4" fill="#009af9" fill-rule="evenodd" fill-opacity="1" stroke="#000000" stroke-opacity="1" stroke-width="3.2"/>
<circle clip-path="url(#clip372)" cx="1102.4" cy="874.862" r="14.4" fill="#009af9" fill-rule="evenodd" fill-opacity="1" stroke="#000000" stroke-opacity="1" stroke-width="3.2"/>
<circle clip-path="url(#clip372)" cx="1599.72" cy="433.331" r="14.4" fill="#009af9" fill-rule="evenodd" fill-opacity="1" stroke="#000000" stroke-opacity="1" stroke-width="3.2"/>
<circle clip-path="url(#clip372)" cx="1031.25" cy="1029.39" r="14.4" fill="#009af9" fill-rule="evenodd" fill-opacity="1" stroke="#000000" stroke-opacity="1" stroke-width="3.2"/>
<circle clip-path="url(#clip372)" cx="500.992" cy="1197.6" r="14.4" fill="#009af9" fill-rule="evenodd" fill-opacity="1" stroke="#000000" stroke-opacity="1" stroke-width="3.2"/>
<circle clip-path="url(#clip372)" cx="930.924" cy="1189.61" r="14.4" fill="#009af9" fill-rule="evenodd" fill-opacity="1" stroke="#000000" stroke-opacity="1" stroke-width="3.2"/>
<circle clip-path="url(#clip372)" cx="2061.24" cy="365.73" r="14.4" fill="#009af9" fill-rule="evenodd" fill-opacity="1" stroke="#000000" stroke-opacity="1" stroke-width="3.2"/>
<circle clip-path="url(#clip372)" cx="1361.48" cy="535.272" r="14.4" fill="#009af9" fill-rule="evenodd" fill-opacity="1" stroke="#000000" stroke-opacity="1" stroke-width="3.2"/>
<circle clip-path="url(#clip372)" cx="1011.48" cy="1161.57" r="14.4" fill="#009af9" fill-rule="evenodd" fill-opacity="1" stroke="#000000" stroke-opacity="1" stroke-width="3.2"/>
<circle clip-path="url(#clip372)" cx="1121.43" cy="1035.3" r="14.4" fill="#009af9" fill-rule="evenodd" fill-opacity="1" stroke="#000000" stroke-opacity="1" stroke-width="3.2"/>
<circle clip-path="url(#clip372)" cx="602.891" cy="1197.6" r="14.4" fill="#009af9" fill-rule="evenodd" fill-opacity="1" stroke="#000000" stroke-opacity="1" stroke-width="3.2"/>
<circle clip-path="url(#clip372)" cx="1222.36" cy="813.675" r="14.4" fill="#009af9" fill-rule="evenodd" fill-opacity="1" stroke="#000000" stroke-opacity="1" stroke-width="3.2"/>
<circle clip-path="url(#clip372)" cx="1787.26" cy="365.73" r="14.4" fill="#009af9" fill-rule="evenodd" fill-opacity="1" stroke="#000000" stroke-opacity="1" stroke-width="3.2"/>
<circle clip-path="url(#clip372)" cx="622.042" cy="1197.6" r="14.4" fill="#009af9" fill-rule="evenodd" fill-opacity="1" stroke="#000000" stroke-opacity="1" stroke-width="3.2"/>
<circle clip-path="url(#clip372)" cx="2066.41" cy="365.73" r="14.4" fill="#009af9" fill-rule="evenodd" fill-opacity="1" stroke="#000000" stroke-opacity="1" stroke-width="3.2"/>
<circle clip-path="url(#clip372)" cx="1568.73" cy="452.082" r="14.4" fill="#009af9" fill-rule="evenodd" fill-opacity="1" stroke="#000000" stroke-opacity="1" stroke-width="3.2"/>
<circle clip-path="url(#clip372)" cx="1313.65" cy="808.87" r="14.4" fill="#009af9" fill-rule="evenodd" fill-opacity="1" stroke="#000000" stroke-opacity="1" stroke-width="3.2"/>
<circle clip-path="url(#clip372)" cx="1123.68" cy="988.062" r="14.4" fill="#009af9" fill-rule="evenodd" fill-opacity="1" stroke="#000000" stroke-opacity="1" stroke-width="3.2"/>
<circle clip-path="url(#clip372)" cx="1812.01" cy="365.73" r="14.4" fill="#009af9" fill-rule="evenodd" fill-opacity="1" stroke="#000000" stroke-opacity="1" stroke-width="3.2"/>
<circle clip-path="url(#clip372)" cx="1398.37" cy="480.819" r="14.4" fill="#009af9" fill-rule="evenodd" fill-opacity="1" stroke="#000000" stroke-opacity="1" stroke-width="3.2"/>
<circle clip-path="url(#clip372)" cx="1067.67" cy="1038.04" r="14.4" fill="#009af9" fill-rule="evenodd" fill-opacity="1" stroke="#000000" stroke-opacity="1" stroke-width="3.2"/>
<circle clip-path="url(#clip372)" cx="1015.45" cy="1018.89" r="14.4" fill="#009af9" fill-rule="evenodd" fill-opacity="1" stroke="#000000" stroke-opacity="1" stroke-width="3.2"/>
<circle clip-path="url(#clip372)" cx="950.794" cy="1197.6" r="14.4" fill="#009af9" fill-rule="evenodd" fill-opacity="1" stroke="#000000" stroke-opacity="1" stroke-width="3.2"/>
<circle clip-path="url(#clip372)" cx="746.996" cy="1197.6" r="14.4" fill="#009af9" fill-rule="evenodd" fill-opacity="1" stroke="#000000" stroke-opacity="1" stroke-width="3.2"/>
<circle clip-path="url(#clip372)" cx="1090.22" cy="929.831" r="14.4" fill="#009af9" fill-rule="evenodd" fill-opacity="1" stroke="#000000" stroke-opacity="1" stroke-width="3.2"/>
<circle clip-path="url(#clip372)" cx="1043.54" cy="1067.75" r="14.4" fill="#009af9" fill-rule="evenodd" fill-opacity="1" stroke="#000000" stroke-opacity="1" stroke-width="3.2"/>
<circle clip-path="url(#clip372)" cx="1697.87" cy="365.73" r="14.4" fill="#009af9" fill-rule="evenodd" fill-opacity="1" stroke="#000000" stroke-opacity="1" stroke-width="3.2"/>
<circle clip-path="url(#clip372)" cx="971.825" cy="1197.6" r="14.4" fill="#009af9" fill-rule="evenodd" fill-opacity="1" stroke="#000000" stroke-opacity="1" stroke-width="3.2"/>
<circle clip-path="url(#clip372)" cx="1596.16" cy="365.73" r="14.4" fill="#009af9" fill-rule="evenodd" fill-opacity="1" stroke="#000000" stroke-opacity="1" stroke-width="3.2"/>
<circle clip-path="url(#clip372)" cx="2113.25" cy="365.73" r="14.4" fill="#009af9" fill-rule="evenodd" fill-opacity="1" stroke="#000000" stroke-opacity="1" stroke-width="3.2"/>
<circle clip-path="url(#clip372)" cx="1394.86" cy="557.107" r="14.4" fill="#009af9" fill-rule="evenodd" fill-opacity="1" stroke="#000000" stroke-opacity="1" stroke-width="3.2"/>
<circle clip-path="url(#clip372)" cx="1189.56" cy="874.976" r="14.4" fill="#009af9" fill-rule="evenodd" fill-opacity="1" stroke="#000000" stroke-opacity="1" stroke-width="3.2"/>
<circle clip-path="url(#clip372)" cx="1832.44" cy="365.73" r="14.4" fill="#009af9" fill-rule="evenodd" fill-opacity="1" stroke="#000000" stroke-opacity="1" stroke-width="3.2"/>
<polyline clip-path="url(#clip372)" style="stroke:#e26f46; stroke-linecap:round; stroke-linejoin:round; stroke-width:4; stroke-opacity:1; fill:none" points="255.192,1445.72 268.451,1436.88 391.045,1355.14 464.719,1306.02 527.009,1264.49 594.674,1219.38 657.055,1177.79 723.934,1133.2 801.42,1081.54 870.281,1035.63 930.665,995.37 996.5,951.476 1062.73,907.322 1135.95,858.505 1205.62,812.056 1278.06,763.759 1339.03,723.104 1413.48,673.469 1481.68,628 1544.67,586.006 1608.47,543.467 1679.98,495.793 1744.77,452.593 1818.96,403.131 1887.65,357.334 1955.37,312.184 2021.12,268.347 2088.53,223.408 2162.38,174.172 2269.65,102.649 2291.66,87.9763 "/>
<polyline clip-path="url(#clip372)" style="stroke:#3da44d; stroke-linecap:round; stroke-linejoin:round; stroke-width:4; stroke-opacity:1; fill:none" points="255.192,1197.6 268.451,1197.6 391.045,1197.6 464.719,1197.6 527.009,1197.6 594.674,1197.6 657.055,1197.6 723.934,1197.6 801.42,1197.6 835.851,1197.6 870.281,1197.6 885.377,1197.6 900.473,1197.6 915.569,1197.6 930.665,1197.6 938.895,1197.6 947.124,1197.6 949.181,1197.6 951.239,1196.99 953.296,1194.14 955.353,1191.29 959.468,1185.59 963.583,1179.9 980.042,1157.11 996.5,1134.32 1029.61,1088.47 1062.73,1042.62 1135.95,941.24 1205.62,844.776 1278.06,744.477 1339.03,660.046 1413.48,556.966 1481.68,462.538 1497.43,440.735 1513.17,418.932 1521.05,408.031 1528.92,397.129 1536.8,386.228 1544.67,375.326 1548.66,369.805 1552.64,365.73 1556.63,365.73 1560.62,365.73 1568.59,365.73 1576.57,365.73 1592.52,365.73 1608.47,365.73 1644.23,365.73 1679.98,365.73 1712.38,365.73 1744.77,365.73 1818.96,365.73 1887.65,365.73 1955.37,365.73 2021.12,365.73 2088.53,365.73 2162.38,365.73 2269.65,365.73 2291.66,365.73 "/>
<path clip-path="url(#clip370)" d="M266.053 302.578 L745.506 302.578 L745.506 95.2176 L266.053 95.2176  Z" fill="#ffffff" fill-rule="evenodd" fill-opacity="1"/>
<polyline clip-path="url(#clip370)" style="stroke:#000000; stroke-linecap:round; stroke-linejoin:round; stroke-width:4; stroke-opacity:1; fill:none" points="266.053,302.578 745.506,302.578 745.506,95.2176 266.053,95.2176 266.053,302.578 "/>
<circle clip-path="url(#clip370)" cx="361.994" cy="147.058" r="20.48" fill="#009af9" fill-rule="evenodd" fill-opacity="1" stroke="#000000" stroke-opacity="1" stroke-width="4.55111"/>
<path clip-path="url(#clip370)" d="M476.846 142.347 L476.846 128.319 L481.105 128.319 L481.105 164.338 L476.846 164.338 L476.846 160.449 Q475.503 162.763 473.443 163.898 Q471.406 165.009 468.536 165.009 Q463.837 165.009 460.874 161.259 Q457.934 157.509 457.934 151.398 Q457.934 145.287 460.874 141.537 Q463.837 137.787 468.536 137.787 Q471.406 137.787 473.443 138.921 Q475.503 140.032 476.846 142.347 M462.332 151.398 Q462.332 156.097 464.253 158.782 Q466.198 161.444 469.577 161.444 Q472.957 161.444 474.901 158.782 Q476.846 156.097 476.846 151.398 Q476.846 146.699 474.901 144.037 Q472.957 141.352 469.577 141.352 Q466.198 141.352 464.253 144.037 Q462.332 146.699 462.332 151.398 Z" fill="#000000" fill-rule="nonzero" fill-opacity="1" /><path clip-path="url(#clip370)" d="M501.661 151.305 Q496.499 151.305 494.508 152.486 Q492.517 153.666 492.517 156.514 Q492.517 158.782 493.999 160.125 Q495.503 161.444 498.073 161.444 Q501.614 161.444 503.744 158.944 Q505.897 156.421 505.897 152.254 L505.897 151.305 L501.661 151.305 M510.156 149.546 L510.156 164.338 L505.897 164.338 L505.897 160.402 Q504.438 162.763 502.262 163.898 Q500.087 165.009 496.938 165.009 Q492.957 165.009 490.596 162.787 Q488.258 160.541 488.258 156.791 Q488.258 152.416 491.175 150.194 Q494.114 147.972 499.925 147.972 L505.897 147.972 L505.897 147.555 Q505.897 144.615 503.952 143.018 Q502.031 141.398 498.536 141.398 Q496.313 141.398 494.207 141.93 Q492.1 142.463 490.156 143.527 L490.156 139.592 Q492.494 138.69 494.693 138.25 Q496.892 137.787 498.975 137.787 Q504.6 137.787 507.378 140.703 Q510.156 143.62 510.156 149.546 Z" fill="#000000" fill-rule="nonzero" fill-opacity="1" /><path clip-path="url(#clip370)" d="M523.142 131.051 L523.142 138.412 L531.915 138.412 L531.915 141.722 L523.142 141.722 L523.142 155.796 Q523.142 158.967 523.998 159.87 Q524.878 160.773 527.54 160.773 L531.915 160.773 L531.915 164.338 L527.54 164.338 Q522.61 164.338 520.735 162.509 Q518.86 160.657 518.86 155.796 L518.86 141.722 L515.735 141.722 L515.735 138.412 L518.86 138.412 L518.86 131.051 L523.142 131.051 Z" fill="#000000" fill-rule="nonzero" fill-opacity="1" /><path clip-path="url(#clip370)" d="M549.299 151.305 Q544.137 151.305 542.147 152.486 Q540.156 153.666 540.156 156.514 Q540.156 158.782 541.637 160.125 Q543.142 161.444 545.711 161.444 Q549.253 161.444 551.383 158.944 Q553.535 156.421 553.535 152.254 L553.535 151.305 L549.299 151.305 M557.795 149.546 L557.795 164.338 L553.535 164.338 L553.535 160.402 Q552.077 162.763 549.901 163.898 Q547.725 165.009 544.577 165.009 Q540.596 165.009 538.234 162.787 Q535.897 160.541 535.897 156.791 Q535.897 152.416 538.813 150.194 Q541.753 147.972 547.563 147.972 L553.535 147.972 L553.535 147.555 Q553.535 144.615 551.591 143.018 Q549.67 141.398 546.174 141.398 Q543.952 141.398 541.846 141.93 Q539.739 142.463 537.795 143.527 L537.795 139.592 Q540.133 138.69 542.332 138.25 Q544.531 137.787 546.614 137.787 Q552.239 137.787 555.017 140.703 Q557.795 143.62 557.795 149.546 Z" fill="#000000" fill-rule="nonzero" fill-opacity="1" /><polyline clip-path="url(#clip370)" style="stroke:#e26f46; stroke-linecap:round; stroke-linejoin:round; stroke-width:4; stroke-opacity:1; fill:none" points="290.038,198.898 433.949,198.898 "/>
<path clip-path="url(#clip370)" d="M457.934 180.159 L462.193 180.159 L462.193 216.178 L457.934 216.178 L457.934 180.159 Z" fill="#000000" fill-rule="nonzero" fill-opacity="1" /><path clip-path="url(#clip370)" d="M471.105 190.252 L475.364 190.252 L475.364 216.178 L471.105 216.178 L471.105 190.252 M471.105 180.159 L475.364 180.159 L475.364 185.553 L471.105 185.553 L471.105 180.159 Z" fill="#000000" fill-rule="nonzero" fill-opacity="1" /><path clip-path="url(#clip370)" d="M505.827 200.529 L505.827 216.178 L501.568 216.178 L501.568 200.668 Q501.568 196.988 500.133 195.159 Q498.698 193.33 495.827 193.33 Q492.378 193.33 490.388 195.53 Q488.397 197.729 488.397 201.525 L488.397 216.178 L484.114 216.178 L484.114 190.252 L488.397 190.252 L488.397 194.28 Q489.925 191.942 491.985 190.784 Q494.068 189.627 496.776 189.627 Q501.244 189.627 503.536 192.405 Q505.827 195.159 505.827 200.529 Z" fill="#000000" fill-rule="nonzero" fill-opacity="1" /><path clip-path="url(#clip370)" d="M536.498 202.15 L536.498 204.233 L516.915 204.233 Q517.193 208.631 519.554 210.946 Q521.938 213.238 526.174 213.238 Q528.628 213.238 530.92 212.636 Q533.235 212.034 535.503 210.83 L535.503 214.858 Q533.211 215.83 530.804 216.34 Q528.397 216.849 525.92 216.849 Q519.716 216.849 516.082 213.238 Q512.471 209.627 512.471 203.469 Q512.471 197.104 515.897 193.377 Q519.346 189.627 525.179 189.627 Q530.41 189.627 533.443 193.006 Q536.498 196.363 536.498 202.15 M532.239 200.9 Q532.193 197.405 530.272 195.321 Q528.373 193.238 525.225 193.238 Q521.661 193.238 519.508 195.252 Q517.378 197.266 517.054 200.923 L532.239 200.9 Z" fill="#000000" fill-rule="nonzero" fill-opacity="1" /><path clip-path="url(#clip370)" d="M555.271 203.145 Q550.109 203.145 548.119 204.326 Q546.128 205.506 546.128 208.354 Q546.128 210.622 547.609 211.965 Q549.114 213.284 551.683 213.284 Q555.225 213.284 557.355 210.784 Q559.508 208.261 559.508 204.094 L559.508 203.145 L555.271 203.145 M563.767 201.386 L563.767 216.178 L559.508 216.178 L559.508 212.242 Q558.049 214.603 555.873 215.738 Q553.697 216.849 550.549 216.849 Q546.568 216.849 544.207 214.627 Q541.869 212.381 541.869 208.631 Q541.869 204.256 544.785 202.034 Q547.725 199.812 553.535 199.812 L559.508 199.812 L559.508 199.395 Q559.508 196.455 557.563 194.858 Q555.642 193.238 552.146 193.238 Q549.924 193.238 547.818 193.77 Q545.711 194.303 543.767 195.367 L543.767 191.432 Q546.105 190.53 548.304 190.09 Q550.503 189.627 552.586 189.627 Q558.211 189.627 560.989 192.543 Q563.767 195.46 563.767 201.386 Z" fill="#000000" fill-rule="nonzero" fill-opacity="1" /><path clip-path="url(#clip370)" d="M587.563 194.233 Q586.845 193.817 585.989 193.631 Q585.156 193.423 584.137 193.423 Q580.526 193.423 578.581 195.784 Q576.66 198.122 576.66 202.52 L576.66 216.178 L572.378 216.178 L572.378 190.252 L576.66 190.252 L576.66 194.28 Q578.003 191.918 580.156 190.784 Q582.308 189.627 585.387 189.627 Q585.827 189.627 586.359 189.696 Q586.892 189.743 587.54 189.858 L587.563 194.233 Z" fill="#000000" fill-rule="nonzero" fill-opacity="1" /><path clip-path="url(#clip370)" d="M620.225 180.159 L620.225 183.701 L616.151 183.701 Q613.859 183.701 612.956 184.627 Q612.077 185.553 612.077 187.96 L612.077 190.252 L619.091 190.252 L619.091 193.562 L612.077 193.562 L612.077 216.178 L607.794 216.178 L607.794 193.562 L603.72 193.562 L603.72 190.252 L607.794 190.252 L607.794 188.446 Q607.794 184.118 609.808 182.15 Q611.822 180.159 616.197 180.159 L620.225 180.159 Z" fill="#000000" fill-rule="nonzero" fill-opacity="1" /><path clip-path="url(#clip370)" d="M623.79 190.252 L628.049 190.252 L628.049 216.178 L623.79 216.178 L623.79 190.252 M623.79 180.159 L628.049 180.159 L628.049 185.553 L623.79 185.553 L623.79 180.159 Z" fill="#000000" fill-rule="nonzero" fill-opacity="1" /><path clip-path="url(#clip370)" d="M641.174 182.891 L641.174 190.252 L649.947 190.252 L649.947 193.562 L641.174 193.562 L641.174 207.636 Q641.174 210.807 642.03 211.71 Q642.91 212.613 645.572 212.613 L649.947 212.613 L649.947 216.178 L645.572 216.178 Q640.641 216.178 638.766 214.349 Q636.891 212.497 636.891 207.636 L636.891 193.562 L633.766 193.562 L633.766 190.252 L636.891 190.252 L636.891 182.891 L641.174 182.891 Z" fill="#000000" fill-rule="nonzero" fill-opacity="1" /><polyline clip-path="url(#clip370)" style="stroke:#3da44d; stroke-linecap:round; stroke-linejoin:round; stroke-width:4; stroke-opacity:1; fill:none" points="290.038,250.738 433.949,250.738 "/>
<path clip-path="url(#clip370)" d="M478.443 243.087 L478.443 247.069 Q476.638 246.073 474.809 245.587 Q473.003 245.078 471.152 245.078 Q467.008 245.078 464.716 247.717 Q462.425 250.332 462.425 255.078 Q462.425 259.823 464.716 262.462 Q467.008 265.078 471.152 265.078 Q473.003 265.078 474.809 264.592 Q476.638 264.082 478.443 263.087 L478.443 267.022 Q476.661 267.856 474.739 268.272 Q472.841 268.689 470.689 268.689 Q464.832 268.689 461.383 265.008 Q457.934 261.328 457.934 255.078 Q457.934 248.735 461.406 245.101 Q464.902 241.467 470.966 241.467 Q472.934 241.467 474.809 241.883 Q476.684 242.277 478.443 243.087 Z" fill="#000000" fill-rule="nonzero" fill-opacity="1" /><path clip-path="url(#clip370)" d="M485.851 231.999 L490.11 231.999 L490.11 268.018 L485.851 268.018 L485.851 231.999 Z" fill="#000000" fill-rule="nonzero" fill-opacity="1" /><path clip-path="url(#clip370)" d="M510.804 254.985 Q505.642 254.985 503.651 256.166 Q501.661 257.346 501.661 260.194 Q501.661 262.462 503.142 263.805 Q504.647 265.124 507.216 265.124 Q510.758 265.124 512.887 262.624 Q515.04 260.101 515.04 255.934 L515.04 254.985 L510.804 254.985 M519.299 253.226 L519.299 268.018 L515.04 268.018 L515.04 264.082 Q513.582 266.443 511.406 267.578 Q509.23 268.689 506.082 268.689 Q502.1 268.689 499.739 266.467 Q497.401 264.221 497.401 260.471 Q497.401 256.096 500.318 253.874 Q503.258 251.652 509.068 251.652 L515.04 251.652 L515.04 251.235 Q515.04 248.295 513.096 246.698 Q511.174 245.078 507.679 245.078 Q505.457 245.078 503.35 245.61 Q501.244 246.143 499.3 247.207 L499.3 243.272 Q501.637 242.37 503.837 241.93 Q506.036 241.467 508.119 241.467 Q513.744 241.467 516.522 244.383 Q519.299 247.3 519.299 253.226 Z" fill="#000000" fill-rule="nonzero" fill-opacity="1" /><path clip-path="url(#clip370)" d="M548.258 247.069 Q549.855 244.198 552.077 242.833 Q554.299 241.467 557.308 241.467 Q561.359 241.467 563.558 244.314 Q565.757 247.138 565.757 252.369 L565.757 268.018 L561.475 268.018 L561.475 252.508 Q561.475 248.782 560.156 246.976 Q558.836 245.17 556.128 245.17 Q552.818 245.17 550.896 247.37 Q548.975 249.569 548.975 253.365 L548.975 268.018 L544.693 268.018 L544.693 252.508 Q544.693 248.758 543.373 246.976 Q542.054 245.17 539.299 245.17 Q536.035 245.17 534.114 247.393 Q532.193 249.592 532.193 253.365 L532.193 268.018 L527.91 268.018 L527.91 242.092 L532.193 242.092 L532.193 246.12 Q533.651 243.735 535.688 242.601 Q537.725 241.467 540.526 241.467 Q543.35 241.467 545.318 242.902 Q547.309 244.337 548.258 247.069 Z" fill="#000000" fill-rule="nonzero" fill-opacity="1" /><path clip-path="url(#clip370)" d="M578.373 264.129 L578.373 277.879 L574.091 277.879 L574.091 242.092 L578.373 242.092 L578.373 246.027 Q579.716 243.712 581.753 242.601 Q583.813 241.467 586.66 241.467 Q591.382 241.467 594.322 245.217 Q597.285 248.967 597.285 255.078 Q597.285 261.189 594.322 264.939 Q591.382 268.689 586.66 268.689 Q583.813 268.689 581.753 267.578 Q579.716 266.443 578.373 264.129 M592.864 255.078 Q592.864 250.379 590.919 247.717 Q588.998 245.032 585.618 245.032 Q582.239 245.032 580.294 247.717 Q578.373 250.379 578.373 255.078 Q578.373 259.777 580.294 262.462 Q582.239 265.124 585.618 265.124 Q588.998 265.124 590.919 262.462 Q592.864 259.777 592.864 255.078 Z" fill="#000000" fill-rule="nonzero" fill-opacity="1" /><path clip-path="url(#clip370)" d="M626.521 253.99 L626.521 256.073 L606.938 256.073 Q607.216 260.471 609.577 262.786 Q611.961 265.078 616.197 265.078 Q618.651 265.078 620.942 264.476 Q623.257 263.874 625.526 262.67 L625.526 266.698 Q623.234 267.67 620.827 268.18 Q618.419 268.689 615.942 268.689 Q609.739 268.689 606.104 265.078 Q602.493 261.467 602.493 255.309 Q602.493 248.944 605.919 245.217 Q609.368 241.467 615.202 241.467 Q620.433 241.467 623.466 244.846 Q626.521 248.203 626.521 253.99 M622.262 252.74 Q622.216 249.245 620.294 247.161 Q618.396 245.078 615.248 245.078 Q611.683 245.078 609.53 247.092 Q607.401 249.106 607.077 252.763 L622.262 252.74 Z" fill="#000000" fill-rule="nonzero" fill-opacity="1" /><path clip-path="url(#clip370)" d="M650.572 246.027 L650.572 231.999 L654.831 231.999 L654.831 268.018 L650.572 268.018 L650.572 264.129 Q649.229 266.443 647.169 267.578 Q645.132 268.689 642.262 268.689 Q637.563 268.689 634.6 264.939 Q631.66 261.189 631.66 255.078 Q631.66 248.967 634.6 245.217 Q637.563 241.467 642.262 241.467 Q645.132 241.467 647.169 242.601 Q649.229 243.712 650.572 246.027 M636.058 255.078 Q636.058 259.777 637.979 262.462 Q639.924 265.124 643.303 265.124 Q646.683 265.124 648.627 262.462 Q650.572 259.777 650.572 255.078 Q650.572 250.379 648.627 247.717 Q646.683 245.032 643.303 245.032 Q639.924 245.032 637.979 247.717 Q636.058 250.379 636.058 255.078 Z" fill="#000000" fill-rule="nonzero" fill-opacity="1" /><path clip-path="url(#clip370)" d="M691.798 231.999 L691.798 235.541 L687.724 235.541 Q685.433 235.541 684.53 236.467 Q683.65 237.393 683.65 239.8 L683.65 242.092 L690.664 242.092 L690.664 245.402 L683.65 245.402 L683.65 268.018 L679.368 268.018 L679.368 245.402 L675.294 245.402 L675.294 242.092 L679.368 242.092 L679.368 240.286 Q679.368 235.958 681.382 233.99 Q683.396 231.999 687.771 231.999 L691.798 231.999 Z" fill="#000000" fill-rule="nonzero" fill-opacity="1" /><path clip-path="url(#clip370)" d="M695.363 242.092 L699.623 242.092 L699.623 268.018 L695.363 268.018 L695.363 242.092 M695.363 231.999 L699.623 231.999 L699.623 237.393 L695.363 237.393 L695.363 231.999 Z" fill="#000000" fill-rule="nonzero" fill-opacity="1" /><path clip-path="url(#clip370)" d="M712.747 234.731 L712.747 242.092 L721.521 242.092 L721.521 245.402 L712.747 245.402 L712.747 259.476 Q712.747 262.647 713.604 263.55 Q714.484 264.453 717.146 264.453 L721.521 264.453 L721.521 268.018 L717.146 268.018 Q712.215 268.018 710.34 266.189 Q708.465 264.337 708.465 259.476 L708.465 245.402 L705.34 245.402 L705.34 242.092 L708.465 242.092 L708.465 234.731 L712.747 234.731 Z" fill="#000000" fill-rule="nonzero" fill-opacity="1" /></svg>
